<?xml version="1.0" encoding="utf-8"?>
<?xml-stylesheet type="text/xsl" href="rss1.xsl"?>
<rss version="2.0" xmlns:atom="http://www.w3.org/2005/Atom" xmlns:content="http://purl.org/rss/1.0/modules/content/" xmlns:dc="http://purl.org/dc/elements/1.1/" xmlns:media="http://search.yahoo.com/mrss/">
<channel>
 <title>Getty</title>
 <link>http://www.gettyimg.com/</link>
 <atom:link href="http://www.gettyimg.com/" rel="self" type="application/rss+xml" />

 
                <item>
                <title><![CDATA[【Requests】[REQ AUD] - Help finding these songs?]]></title>
                <link><![CDATA[https://sharemania.us/threads/help-finding-these-songs.233774/]]></link>
                <description><![CDATA[<article>
<blockquote class="messageText SelectQuoteContainer ugc baseHtml">
Teemid - Midnight City<br>
Jungle - Don’t Play (feat. Mood Talk)<br>
VIQ (Chillwave) &amp; Krosia - Echodrift<br>
Tove Lo - Elevator Eyes<br>
Saib - Samui Sunrise<br>
Saib - Rainforest (Original Mix)<br>
Leisure - Mellow<br>
J-One - Eclipse<br>
Gunship - Send Me An Angel<br>
Polo &amp; Pan - Nagori<br>
<br>
Lossless, if possible. Thank you in advance!
<div class="messageTextEndMarker">&nbsp;</div>
</blockquote>
</article>]]></description>
                <author><![CDATA[haroldnkumar]]></author>
                </item>

                
                <item>
                <title><![CDATA[【Cinema Center】MOVIE - 카 2 (2011) (한국어 더빙) (720p)]]></title>
                <link><![CDATA[https://sharemania.us/threads/%EC%B9%B4-2-2011-%ED%95%9C%EA%B5%AD%EC%96%B4-%EB%8D%94%EB%B9%99-720p.233775/]]></link>
                <description><![CDATA[<article>
<blockquote class="messageText SelectQuoteContainer ugc baseHtml">
<div style="text-align: center"><img src="https://www.themoviedb.org/t/p/original/yaU7wsMDQKwUkeKHfktcPaD2Swu.jpg" class="bbCodeImage LbImage" alt="[​IMG]" data-url="https://www.themoviedb.org/t/p/original/yaU7wsMDQKwUkeKHfktcPaD2Swu.jpg" style="">​</div><br>
<b>Release Name</b><br>
Cars.2.2011.KORDUB.720p<br>
<br>
<div class="bbCodeBlock bbCodeCode">
<div class="type">Code:</div>
<pre>General
Unique ID                                : 158231857697065904807638470986847147709 (0x770A58E7F69E7B6AA32ED6496CA6D6BD)
Complete name                            : Cars.2.2011.KORDUB.720p.mkv
Format                                   : Matroska
Format version                           : Version 4
File size                                : 1.04 GiB
Duration                                 : 1 h 47 min
Overall bit rate                         : 1 394 kb/s
Frame rate                               : 23.976 FPS
Movie name                               : 카 2
Encoded date                             : 2023-12-11 00:54:11 UTC
Writing application                      : mkvmerge v73.0.0 ('25 or 6 to 4') 64-bit
Writing library                          : libebml v1.4.4 + libmatroska v1.7.1

Video
ID                                       : 1
Format                                   : AVC
Format/Info                              : Advanced Video Codec
Format profile                           : High@L3.1
Format settings                          : CABAC / 5 Ref Frames
Format settings, CABAC                   : Yes
Format settings, Reference frames        : 5 frames
Codec ID                                 : V_MPEG4/ISO/AVC
Duration                                 : 1 h 47 min
Bit rate                                 : 1 280 kb/s
Width                                    : 1 710 pixels
Height                                   : 718 pixels
Display aspect ratio                     : 2.39:1
Frame rate mode                          : Constant
Frame rate                               : 23.976 (24000/1001) FPS
Color space                              : YUV
Chroma subsampling                       : 4:2:0
Bit depth                                : 8 bits
Scan type                                : Progressive
Bits/(Pixel*Frame)                       : 0.043
Stream size                              : 968 MiB (91%)
Title                                    : Spanish
Writing library                          : x264 core 148 r2643 5c65704
Encoding settings                        : cabac=1 / ref=5 / deblock=1:0:0 / analyse=0x3:0x113 / me=hex / subme=7 / psy=1 / psy_rd=1.00:0.00 / mixed_ref=1 / me_range=16 / chroma_me=1 / trellis=1 / 8x8dct=1 / cqm=0 / deadzone=21,11 / fast_pskip=1 / chroma_qp_offset=-2 / threads=8 / lookahead_threads=8 / sliced_threads=1 / slices=8 / nr=0 / decimate=1 / interlaced=0 / bluray_compat=0 / constrained_intra=0 / bframes=0 / weightp=2 / keyint=250 / keyint_min=23 / scenecut=40 / intra_refresh=0 / rc=abr / mbtree=0 / bitrate=1280 / ratetol=1.0 / qcomp=0.60 / qpmin=0 / qpmax=69 / qpstep=4 / ip_ratio=1.40 / aq=1:1.00
Language                                 : Spanish (Latin America)
Default                                  : Yes
Forced                                   : No

Audio
ID                                       : 2
Format                                   : AAC LC
Format/Info                              : Advanced Audio Codec Low Complexity
Codec ID                                 : 2 / A_AAC-2
Duration                                 : 1 h 47 min
Bit rate                                 : 128 kb/s
Channel(s)                               : 2 channels
Channel layout                           : L R
Sampling rate                            : 44.1 kHz
Frame rate                               : 43.066 FPS (1024 SPF)
Compression mode                         : Lossy
Stream size                              : 98.0 MiB (9%)
Title                                    : Korean
Language                                 : Korean (KR)
Default                                  : Yes
Forced                                   : No</pre>
</div><b>Download</b><br>
<div class="bbCodeBlock bbCodeVfcHH HiddenContent">
<div class="attribution type">Hidden Content:</div>
<blockquote>You must either reply or click 'Like' to see the hidden information contained here.</blockquote>
</div>
<div class="messageTextEndMarker">&nbsp;</div>
</blockquote>
</article>]]></description>
                <author><![CDATA[Austin Zimmermann]]></author>
                </item>

                </channel></rss>